<svg height="496pt" viewBox="0 0 496 496" width="496pt" xmlns="http://www.w3.org/2000/svg" xmlns:xlink="http://www.w3.org/1999/xlink"><linearGradient id="a" gradientUnits="userSpaceOnUse" x1="248" x2="248" y1="496" y2="0"><stop offset="0" stop-color="#9f2fff"/><stop offset="1" stop-color="#0bb1d3"/></linearGradient><path d="m456 128h-45.015625c-18.015625-73.351562-84.152344-128-162.984375-128s-144.96875 54.648438-162.984375 128h-45.015625c-22.054688 0-40 17.945312-40 40v240c0 22.054688 17.945312 40 40 40h104v32h-32v16h272v-16h-32v-32h104c22.054688 0 40-17.945312 40-40v-240c0-22.054688-17.945312-40-40-40zm-208-112c83.816406 0 152 68.183594 152 152s-68.183594 152-152 152-152-68.183594-152-152 68.183594-152 152-152zm-208 128h41.921875c-1.136719 7.863281-1.921875 15.832031-1.921875 24 0 92.632812 75.359375 168 168 168s168-75.367188 168-168c0-8.167969-.785156-16.136719-1.921875-24h41.921875c13.230469 0 24 10.769531 24 24v216h-464v-216c0-13.230469 10.769531-24 24-24zm296 336h-176v-32h176zm120-48h-416c-13.230469 0-24-10.769531-24-24v-8h464v8c0 13.230469-10.769531 24-24 24zm-165-209.566406 72.191406-57.753906-72.191406-57.75 9.992188-12.496094 87.808593 70.246094-87.808593 70.25zm-96 12.496094-87.808594-70.25 87.808594-70.246094 9.992188 12.496094-72.191407 57.75 72.191407 57.753906zm32.265625 15.644531-15.152344-5.148438 56.621094-166.640625 15.152344 5.152344zm-115.265625 117.425781h-80v-16h80zm0-32h-80v-16h80zm0-32h-80v-16h80zm352 64h-80v-16h80zm0-32h-80v-16h80zm0-32h-80v-16h80zm0 0" fill="url(#a)"/></svg>