<svg height="496pt" viewBox="-32 0 496 496" width="496pt" xmlns="http://www.w3.org/2000/svg" xmlns:xlink="http://www.w3.org/1999/xlink"><linearGradient id="a" gradientUnits="userSpaceOnUse" x1="216" x2="216" y1="496" y2="0"><stop offset="0" stop-color="#9f2fff"/><stop offset="1" stop-color="#0bb1d3"/></linearGradient><path d="m400 80h-32v-80h-368v456c0 22.054688 17.945312 40 40 40h352c22.054688 0 40-17.945312 40-40v-296h-32zm-360 400c-13.230469 0-24-10.769531-24-24v-440h336v440c0 9 2.984375 17.3125 8.015625 24zm376-304v280c0 13.230469-10.769531 24-24 24s-24-10.769531-24-24v-360h16v336h16v-256zm-32 272h16v16h-16zm-109.015625-78.328125-26.984375-7.703125v-2.136719c9.96875-7.511719 16-19.328125 16-31.832031v-14.625c0-21.167969-15.855469-39.253906-36.105469-41.183594-11.207031-1.101562-22.480469 2.640625-30.796875 10.199219-8.320312 7.570313-13.097656 18.363281-13.097656 29.609375v16c0 12.503906 6.03125 24.320312 16 31.832031v2.136719l-26.992188 7.703125c-17.078124 4.886719-29.007812 20.703125-29.007812 38.472656v23.855469h160v-23.855469c0-17.769531-11.929688-33.585937-29.015625-38.472656zm13.015625 46.328125h-128v-7.855469c0-10.65625 7.160156-20.152343 17.40625-23.082031l38.59375-11.03125v-23.070312l-3.976562-2.3125c-7.527344-4.382813-12.023438-12.105469-12.023438-20.648438v-16c0-6.753906 2.863281-13.222656 7.855469-17.769531 5.066406-4.605469 11.585937-6.742188 18.519531-6.125 12.128906 1.160156 21.625 12.261719 21.625 25.269531v14.625c0 8.542969-4.496094 16.265625-12.023438 20.648438l-3.976562 2.3125v23.070312l38.585938 11.03125c10.253906 2.929688 17.414062 12.425781 17.414062 23.082031zm-176 48h224v-224h-224zm16-208h192v192h-192zm0-32c52.9375 0 96-43.0625 96-96s-43.0625-96-96-96-96 43.0625-96 96 43.0625 96 96 96zm8.527344-175.527344c40.113281 4.269532 71.472656 38.296875 71.472656 79.527344 0 5.289062-.542969 10.457031-1.527344 15.464844-2.03125.320312-4.058594.535156-6.046875.535156-13.472656 0-24.425781-10.953125-24.425781-24.425781 0-12.335938-5.519531-23.839844-15.167969-31.558594l-13.632812-10.902344c-7.121094-5.6875-11.199219-14.183593-11.199219-23.289062 0-1.777344.175781-3.566407.527344-5.351563zm-86.953125 95.289063c-1.023438-5.105469-1.574219-10.371094-1.574219-15.761719 0-26.121094 12.640625-49.28125 32.0625-63.894531 5.113281 6.855469 7.9375 15.335937 7.9375 23.894531v12c0 15.441406 12.558594 28 28 28 6.617188 0 12 5.382812 12 12v7.71875c0 11.175781-9.105469 20.28125-20.28125 20.28125-5.421875 0-10.511719-2.113281-14.34375-5.9375l-1.65625-1.65625c-10.574219-10.574219-24.640625-16.40625-39.597656-16.40625-.824219 0-1.679688-.113281-2.546875-.238281zm30.832031 27.957031 1.65625 1.65625c6.847656 6.847656 15.960938 10.625 25.65625 10.625 20.007812 0 36.28125-16.273438 36.28125-36.28125v-7.71875c0-15.441406-12.558594-28-28-28-6.617188 0-12-5.382812-12-12v-12c0-11.480469-3.703125-22.792969-10.304688-32.160156 8.273438-3.953125 17.289063-6.566406 26.824219-7.457032-.222656 1.808594-.519531 3.625-.519531 5.441407 0 14 6.265625 27.046875 17.199219 35.792969l13.632812 10.894531c5.824219 4.65625 9.167969 11.617187 9.167969 19.0625 0 22.289062 18.136719 40.425781 40.425781 40.425781.285157 0 .589844-.054688.878907-.0625-12.359376 28.253906-40.550782 48.0625-73.304688 48.0625-32.625 0-60.703125-19.664062-73.144531-47.734375 9.640625.65625 18.65625 4.558594 25.550781 11.453125zm159.59375-139.71875h96v16h-96zm16 48h-16v-16h16zm16-16h64v16h-64zm-32 32h96v16h-96zm0 32h96v16h-96zm64 48h-64v-16h64zm16-16h16v16h-16zm-288 280h64v16h-64zm0-32h64v16h-64zm0-32h64v16h-64zm0-32h64v16h-64zm0-32h64v16h-64zm0 0" fill="url(#a)"/></svg>