<svg height="496pt" viewBox="-1 0 496 496" width="496pt" xmlns="http://www.w3.org/2000/svg" xmlns:xlink="http://www.w3.org/1999/xlink"><linearGradient id="a" gradientUnits="userSpaceOnUse" x1="247.4728" x2="247.4728" y1="496" y2="0"><stop offset="0" stop-color="#9f2fff"/><stop offset="1" stop-color="#0bb1d3"/></linearGradient><path d="m32 496h256v-16h-16c-8.824219 0-16-7.175781-16-16s7.175781-16 16-16h16v-96h144v-16h-16c-8.824219 0-16-7.175781-16-16s7.175781-16 16-16h16v-208h62.945312l-21.328124-32 21.328124-32h-62.945312v-32h-248c-22.054688 0-40 17.945312-40 40v104h-104c-22.054688 0-40 17.945312-40 40v280c0 17.648438 14.351562 32 32 32zm32-64v-272h208v272zm176-288v-80h144v112h-96v-32zm148.449219 192h-100.449219v-32h100.449219c-2.753907 4.726562-4.449219 10.144531-4.449219 16s1.695312 11.273438 4.449219 16zm76.605469-288-10.671876 16 10.671876 16h-33.054688v-32zm-49.054688 240h-128v-96h112v-144h-176v96h-16v-128h208zm-256-248c0-13.230469 10.769531-24 24-24h8v128h-32zm-120 120h8v272h-16c-5.855469 0-11.273438 1.695312-16 4.449219v-252.449219c0-13.230469 10.769531-24 24-24zm-8 288h212.449219c-2.753907 4.726562-4.449219 10.144531-4.449219 16s1.695312 11.273438 4.449219 16h-212.449219c-8.824219 0-16-7.175781-16-16s7.175781-16 16-16zm136-272c-48.519531 0-88 39.480469-88 88s39.480469 88 88 88 88-39.480469 88-88-39.480469-88-88-88zm-72 88h6.871094c8.039062 0 15.503906 4 19.96875 10.6875l8.878906 13.3125h28.28125c4.414062 0 8 3.59375 8 8s-3.585938 8-8 8h-1.375c-14.234375 0-27.714844 4.753906-38.703125 13.441406-14.648437-13.183594-23.921875-32.226562-23.921875-53.441406zm72 72c-12.425781 0-24.121094-3.167969-34.335938-8.726562 7.398438-4.714844 15.976563-7.273438 24.960938-7.273438h1.375c13.230469 0 24-10.769531 24-24s-10.769531-24-24-24h-19.71875l-4.128906-6.183594c-7.433594-11.152344-19.878906-17.816406-33.28125-17.816406h-5.023438c6.726563-29.480469 31.542969-52.128906 62.144532-55.527344v25.101563c0 11.714843 5.824218 22.585937 15.558593 29.082031 5.28125 3.519531 8.441407 9.414062 8.441407 15.769531v6.160157c0 15.0625 9.601562 28.382812 23.894531 33.148437l17.335937 5.777344c-13.160156 17.273437-33.878906 28.488281-57.222656 28.488281zm65.632812-42.550781-20.671874-6.898438c-7.753907-2.582031-12.960938-9.808593-12.960938-17.976562v-6.160157c0-11.710937-5.824219-22.582031-15.558594-29.078124-5.28125-3.511719-8.441406-9.40625-8.441406-15.761719v-25.101563c35.945312 4 64 34.535156 64 71.527344 0 10.496094-2.3125 20.441406-6.367188 29.449219zm-153.632812 74.550781h176v16h-176zm144 32h32v16h-32zm-144 0h128v16h-128zm224-192h96v16h-96zm0 32h96v16h-96zm0 0" fill="url(#a)"/></svg>