<svg id="Layer_5" enable-background="new 0 0 64 64" height="512" viewBox="0 0 64 64" width="512" xmlns="http://www.w3.org/2000/svg" xmlns:xlink="http://www.w3.org/1999/xlink"><linearGradient id="SVGID_1_" gradientUnits="userSpaceOnUse" x1="32" x2="32" y1="57" y2="7"><stop offset="0" stop-color="#9f2fff"/><stop offset="1" stop-color="#0bb1d3"/></linearGradient><path d="m60 7h-56c-1.654 0-3 1.346-3 3v44c0 1.654 1.346 3 3 3h56c1.654 0 3-1.346 3-3v-44c0-1.654-1.346-3-3-3zm-56 2h56c.552 0 1 .449 1 1v9h-58v-9c0-.551.448-1 1-1zm-1 45v-33h30v34h-29c-.552 0-1-.448-1-1zm57 1h-25v-34h26v33c0 .552-.448 1-1 1zm-49-44h-6v6h6zm-2 4h-2v-2h2zm10-4h-6v6h6zm-2 4h-2v-2h2zm10-4h-6v6h6zm-2 4h-2v-2h2zm12 38h6v-6h-6zm2-4h2v2h-2zm6 4h6v-6h-6zm2-4h2v2h-2zm6 4h6v-6h-6zm2-4h2v2h-2zm-50-26v14h26v-14zm24 12h-22v-10h22zm-24 18h26v-14h-26zm2-12h22v10h-22zm42-18h-12v14h12zm-2 12h-8v-10h8zm6-10h-2v-2h2zm2-2h4v2h-4zm-4 4h8v2h-8zm0 4h8v2h-8zm0 4h8v2h-8zm-12 6h-2v-2h2zm2-2h18v2h-18zm16 4h2v2h-2zm-2 2h-18v-2h18z" fill="url(#SVGID_1_)"/></svg>