<?xml version="1.0" encoding="utf-8"?>
<!-- Generator: Adobe Illustrator 24.2.3, SVG Export Plug-In . SVG Version: 6.00 Build 0)  -->
<svg version="1.1" id="Layer_1" xmlns="http://www.w3.org/2000/svg" xmlns:xlink="http://www.w3.org/1999/xlink" x="0px" y="0px"
	 viewBox="0 0 189.9 191.7" style="enable-background:new 0 0 189.9 191.7;" xml:space="preserve">
<style type="text/css">
	.st0{fill:#B12627;}
	.st1{fill:#B12628;}
	.st2{fill:none;}
</style>
<g>
	<g>
		<path class="st0" d="M13.4,109.2c-4.8-4.7-9-8.8-13.4-13.1c31.8-31.5,63.6-63,95.6-94.6c31.6,31.9,63,63.7,94.3,95.4
			c-4,4.2-7.9,8.2-12.1,12.6c-27.6-27.6-55-55-82.3-82.3C68,54.6,40.7,81.8,13.4,109.2z"/>
		<path class="st1" d="M94.3,189.9c-23.7-23.9-47.1-47.7-70.4-71.2c23.8-23.8,47.5-47.4,71.1-71c23.5,23.5,47.2,47.2,71.1,71.1
			C142.2,142.4,118.4,166.1,94.3,189.9z M94.7,71.9c-0.7,0.4-1,0.5-1.1,0.7C81.7,84.3,69.7,95.9,58,107.8c-5.7,5.8-8,12.9-7,21.1
			c1.5,12.5,15.9,25,31.3,16.4c6.1-3.4,9.4-9.4,8.6-15.7c-0.7-5.7-5.7-9.6-11.7-9.2c-5,0.4-8.8,4.9-8.8,10.4c0,0.7-0.1,1.4-0.2,2.2
			c-3.5-1.9-4.8-4.6-4-8.1c0.9-3.9,3.1-7.1,5.9-9.9c6.9-6.9,13.8-13.8,20.7-20.7c0.5-0.5,1.1-1,1.7-1.4c0.4,0.3,0.6,0.4,0.8,0.6
			c7.1,7.4,14.2,14.8,21.2,22.2c2.5,2.7,4.7,5.7,5.4,9.5c0.8,3.8-1.2,7.2-4.8,8.2c0.1-0.5,0.2-1,0.3-1.4c0.9-5.2-2.3-10.2-7.5-11.4
			c-7.9-1.9-14.9,6.2-12.5,14.4c2,7.2,9.8,12.8,17.8,13.2c10.6,0.6,23.8-9.8,22-25.1c-0.7-6.2-3.5-11.4-7.7-15.8
			c-9.3-9.8-18.8-19.6-28.2-29.3C99.2,76,97,74,94.7,71.9z"/>
	</g>
</g>
<rect x="-318.2" y="61" class="st2" width="331.8" height="75.1"/>
<rect x="202.4" y="61" class="st2" width="331.8" height="75.1"/>
</svg>
