<svg height="499pt" viewBox="0 0 499 499.384" width="499pt" xmlns="http://www.w3.org/2000/svg" xmlns:xlink="http://www.w3.org/1999/xlink"><linearGradient id="linear0" gradientUnits="userSpaceOnUse" x1="249.848" x2="249.848" y1="499.3832" y2="0"><stop offset="0" stop-color="#9f2fff"/><stop offset="1" stop-color="#0bb1d3"/></linearGradient><path d="m.191406 274.015625c0 11.191406 4.359375 21.726563 12.28125 29.65625l195.71875 195.710937 59.3125-59.3125 28.71875-28.726562 5.34375 5.34375c4.648438 4.648438 11.082032 7.3125 17.65625 7.3125 7.089844 0 13.496094-2.96875 18.042969-7.726562l38.582031-36.875c5.304688-5.070313 8.34375-12.191407 8.34375-19.527344 0-7.214844-2.816406-14-7.910156-19.101563l-4.738281-4.738281 127.960937-127.96875-194.527344-194.519531c-8.65625-8.664063-20.410156-13.4375-32.90625-13.542969-12.40625.0546875-24.039062 4.960938-32.726562 13.785156l-106.617188 107.4375-60.933593-60.933594c-7.921875-7.929687-18.449219-12.289062-29.664063-12.289062-23.121094 0-41.9375 18.816406-41.9375 41.945312 0 11.191407 4.359375 21.726563 12.28125 29.65625l61.878906 61.878907-61.777343 62.777343.027343.023438c-7.648437 7.597656-12.410156 18.117188-12.410156 29.734375zm208 202.746094-184.398437-184.402344c-4.90625-4.902344-7.601563-11.421875-7.601563-18.34375 0-14.304687 11.632813-25.945313 25.9375-25.945313 6.925782 0 13.445313 2.699219 18.34375 7.601563l184.40625 184.398437zm111.03125-68.761719c-2.359375 0-4.671875-.953125-6.34375-2.625l-5.34375-5.34375 12.6875-12.6875 5.34375 5.34375c1.671875 1.671875 2.625 3.984375 2.625 6.34375 0 4.945312-4.023437 8.96875-8.96875 8.96875zm45.5625-40.167969-22.546875 21.550781c-1.238281-2.976562-3.0625-5.71875-5.359375-8.015624l-45.375-45.367188 28.6875-28.6875 44.777344 44.777344c2.078125 2.078125 3.222656 4.847656 3.222656 7.789062 0 2.984375-1.238281 5.890625-3.40625 7.953125zm-4.554687-43.105469-40.039063-40.039062-51.3125 51.3125 40.03125 40.03125-52.71875 52.730469-172.6875-172.691407 32.71875-32.71875 38.3125 38.304688 1.5625 1.566406 79.085938 19.769532-19.769532-79.082032-39.871093-39.871094 128.648437-128.65625 172.6875 172.6875zm-163.351563-116.726562-12.6875 12.6875-100.6875-100.6875 12.6875-12.6875zm16.320313 53.007812-37.359375-9.34375 28.015625-28.015624zm-165.007813-128.320312-12.6875-12.6875 36.6875-36.6875 12.6875 12.6875zm24-1.375 100.6875 100.6875-12.6875 12.6875-100.6875-100.6875zm178.535156-106.28125c5.699219-5.785156 13.304688-8.992188 21.425782-9.03125h.136718c7.582032 0 14.949219 3 20.511719 8.152344l-128.570312 128.566406-20.183594-20.183594zm-208.597656 38.96875c6.933594 0 13.445313 2.695312 18.34375 7.601562l.40625.398438-36.6875 36.6875-.398437-.398438c-4.90625-4.90625-7.601563-11.425781-7.601563-18.34375 0-14.304687 11.632813-25.945312 25.9375-25.945312zm62.78125 148.03125-32.71875 32.730469-.40625-.402344c-6.839844-6.847656-15.6875-10.839844-25.191406-11.847656l39.078125-39.71875zm-54.375 81.625 11.3125-11.3125 136 136-11.3125 11.3125zm161.5625-140.871094 147.308594 147.3125 84.097656-84.097656-147.3125-147.3125zm147.308594 124.6875-124.6875-124.6875 61.472656-61.472656 124.6875 124.6875zm-79.214844-149.472656c-13.230468 0-24 10.769531-24 24s10.769532 24 24 24c8.046875 0 15.144532-4.007812 19.496094-10.113281l12.648438 3.617187c.800781 12.519532 11.136718 22.496094 23.855468 22.496094.152344 0 .289063-.039062.441406-.039062l8.167969 21.78125c-5.214843 4.402343-8.609375 10.90625-8.609375 18.257812 0 13.230469 10.769532 24 24 24 13.234375 0 24-10.769531 24-24s-10.765625-24-24-24c-.152344 0-.289062.039062-.4375.039062l-8.167968-21.78125c5.214843-4.410156 8.605468-10.90625 8.605468-18.257812 0-13.230469-10.765625-24-24-24-8.046875 0-15.144531 4.015625-19.503906 10.113281l-12.648438-3.617187c-.792968-12.519532-11.128906-22.496094-23.847656-22.496094zm88 104c0 4.40625-3.582031 8-8 8-4.414062 0-8-3.59375-8-8s3.585938-8 8-8c4.417969 0 8 3.59375 8 8zm-88-72c-4.414062 0-8-3.59375-8-8s3.585938-8 8-8c4.417969 0 8 3.59375 8 8s-3.582031 8-8 8zm56 0c4.417969 0 8 3.59375 8 8s-3.582031 8-8 8c-4.414062 0-8-3.59375-8-8s3.585938-8 8-8zm-8 176c0 4.425781-3.574218 8-8 8-4.421875 0-8-3.574219-8-8s3.578125-8 8-8c4.425782 0 8 3.574219 8 8zm24 24c0 4.425781-3.574218 8-8 8-4.421875 0-8-3.574219-8-8s3.578125-8 8-8c4.425782 0 8 3.574219 8 8zm-304-88c0 4.425781-3.574218 8-8 8-4.421875 0-8-3.574219-8-8s3.578125-8 8-8c4.425782 0 8 3.574219 8 8zm152 168c0-4.425781 3.578125-8 8-8 4.425782 0 8 3.574219 8 8s-3.574218 8-8 8c-4.421875 0-8-3.574219-8-8zm50.34375-56.96875 11.3125 11.3125-11.3125 11.3125-11.3125-11.3125zm-11.3125-11.3125-11.3125 11.3125-11.308594-11.3125 11.308594-11.3125zm-33.375-33.375 10.746094 10.746094-11.3125 11.308594-10.746094-10.742188zm0 0" fill="url(#linear0)"/></svg>