<?xml version="1.0" encoding="utf-8"?>
<!-- Generator: Adobe Illustrator 24.2.3, SVG Export Plug-In . SVG Version: 6.00 Build 0)  -->
<svg version="1.1" id="Layer_1" xmlns="http://www.w3.org/2000/svg" xmlns:xlink="http://www.w3.org/1999/xlink" x="0px" y="0px"
	 viewBox="0 0 95.3 95" style="enable-background:new 0 0 95.3 95;" xml:space="preserve">
<style type="text/css">
	.st0{fill:#972026;}
	.st1{fill:#FFFFFF;}
</style>
<circle class="st0" cx="47.6" cy="47.5" r="47.6"/>
<g>
	<g>
		<path class="st1" d="M16.1,52.8c-1.9-1.8-3.5-3.4-5.2-5.1c12.3-12.2,24.6-24.4,37-36.6c12.2,12.4,24.4,24.7,36.5,37
			c-1.5,1.6-3.1,3.2-4.7,4.9C69,42.2,58.4,31.6,47.9,21C37.2,31.6,26.6,42.2,16.1,52.8z"/>
		<path class="st1" d="M47.4,84c-9.2-9.3-18.2-18.5-27.3-27.6c9.2-9.2,18.4-18.4,27.5-27.5c9.1,9.1,18.3,18.3,27.5,27.5
			C65.9,65.6,56.7,74.8,47.4,84z M47.5,38.3c-0.3,0.2-0.4,0.2-0.4,0.3c-4.6,4.5-9.3,9-13.8,13.6c-2.2,2.2-3.1,5-2.7,8.2
			c0.6,4.8,6.2,9.7,12.1,6.4c2.4-1.3,3.6-3.6,3.3-6.1c-0.3-2.2-2.2-3.7-4.5-3.6c-1.9,0.2-3.4,1.9-3.4,4c0,0.3,0,0.5-0.1,0.9
			c-1.4-0.7-1.9-1.8-1.5-3.1c0.3-1.5,1.2-2.8,2.3-3.8c2.7-2.7,5.3-5.3,8-8c0.2-0.2,0.4-0.4,0.7-0.5c0.2,0.1,0.2,0.2,0.3,0.2
			c2.8,2.9,5.5,5.7,8.2,8.6c1,1,1.8,2.2,2.1,3.7c0.3,1.5-0.5,2.8-1.9,3.2c0-0.2,0.1-0.4,0.1-0.5c0.3-2-0.9-4-2.9-4.4
			c-3.1-0.7-5.8,2.4-4.8,5.6c0.8,2.8,3.8,5,6.9,5.1c4.1,0.2,9.2-3.8,8.5-9.7c-0.3-2.4-1.4-4.4-3-6.1c-3.6-3.8-7.3-7.6-10.9-11.3
			C49.3,39.9,48.4,39.1,47.5,38.3z"/>
	</g>
</g>
</svg>
